<svg id="bold" enable-background="new 0 0 24 24" fill="white" viewBox="0 0 24 24" xmlns="http://www.w3.org/2000/svg"><path d="m23.51 0c-4.69-.08-10.03 2.37-13.41 6.17-3.23.06-6.38 1.38-8.7 3.7-.13.13-.18.33-.12.51s.21.31.4.34l3.86.55-.48.54c-.18.19-.17.5.02.68l4.44 4.44c.3-4.15 3.76-7.43 7.98-7.43 1.23 0 2.4.28 3.44.78 1.97-3 3.13-6.55 3.06-9.79-.01-.27-.22-.48-.49-.49zm-4.61 8.64c-.49.48-1.13.73-1.77.73s-1.28-.25-1.77-.73c-.97-.98-.97-2.57 0-3.54.98-.98 2.57-.98 3.54 0 .97.97.97 2.56 0 3.54z"/><path d="m2.724 16.905c-1.07 1.07-2.539 5.904-2.703 6.451-.053.176-.004.367.125.497.096.096.223.147.354.147.048 0 .096-.007.144-.021.547-.164 5.381-1.633 6.451-2.703 1.205-1.205 1.205-3.166 0-4.371-1.206-1.205-3.166-1.204-4.371 0z"/><path d="m17.5 11c-3.584 0-6.5 2.916-6.5 6.5s2.916 6.5 6.5 6.5 6.5-2.916 6.5-6.5-2.916-6.5-6.5-6.5zm2.8 5.26-3.25 3.5c-.148.159-.349.24-.55.24-.173 0-.347-.06-.488-.181l-1.75-1.5c-.314-.27-.351-.743-.081-1.058.271-.314.743-.351 1.058-.081l1.202 1.031 2.76-2.972c.284-.303.757-.321 1.061-.04.301.283.319.758.038 1.061z"/></svg>