<?xml version="1.0" encoding="iso-8859-1"?>
<svg version="1.1" id="Capa_1" xmlns="http://www.w3.org/2000/svg" xmlns:xlink="http://www.w3.org/1999/xlink" x="0px" y="0px"
	 viewBox="0 0 378.295 378.295" style="enable-background:new 0 0 378.295 378.295;"
	 xml:space="preserve">
<g>
	<g>
		<g id="Layer_5_98_">
			<g>
				<g>
					<path fill="#3182CE" d="M374.073,1.642C372.067,0.739,368.626,0,366.427,0H91.098c-2.2,0-5.642,0.738-7.647,1.642l-2.333,2.332
						c-0.903,2.006-1.642,5.447-1.642,7.647c0,0,0,160.44,0,215.253c0,4.875,0.9,4.897,0.9,4.897
						c2.199,0.06,5.798,0.105,7.998,0.105h50.495c2.2,0,4.743,0.334,5.65,0.743c0.907,0.408,1.65,4.356,1.65,6.559v50.215
						c0,2.201,0.061,5.8,0.134,7.998c0,0,0.04,1.179,4.957,1.179c54.791,0,215.165,0,215.165,0c2.199,0,5.644-0.738,7.646-1.644
						l2.332-2.332c0.901-2.006,1.643-5.446,1.643-7.646V11.622c0-2.2-0.738-5.642-1.643-7.647L374.073,1.642z M346.657,36.322
						c0.592,1.541,0.936,4.596,0.762,6.788l-4.631,58.571c-0.174,2.193-0.836,4.877-1.473,5.964
						c-0.636,1.087-4.693-1.562-6.25-3.117l-7.162-7.162c-1.556-1.556-4.172-3.338-5.813-3.961
						c-1.645-0.623-6.526,2.404-8.086,3.958l-50.846,50.713c-1.558,1.554-4.176,3.335-5.818,3.959
						c-1.645,0.623-6.524-2.406-8.08-3.962l-15.972-15.971c-1.556-1.556-3.338-4.172-3.961-5.814s2.407-6.523,3.965-8.077
						l50.847-50.714c1.558-1.554,3.343-4.169,3.966-5.812c0.622-1.643-2.406-6.525-3.962-8.081l-7.161-7.162
						c-1.558-1.556-3.168-3.802-3.582-4.991c-0.414-1.188,4.235-2.557,6.428-2.729l58.57-4.63
						C340.589,33.917,346.063,34.782,346.657,36.322z"/>
				</g>
				<g>
					<path fill="#3182CE" d="M0.249,374.295c0,2.199,1.8,4,4,4h121.318c2.2,0,4-1.801,4-4V252.977c0-2.198-1.8-4-4-4H4.249c-2.2,0-4,1.802-4,4
						V374.295z"/>
				</g>
			</g>
		</g>
	</g>
</g>
</svg>
