<?xml version="1.0" encoding="UTF-8" standalone="no"?>
<svg
   xmlns="http://www.w3.org/2000/svg"
   id="a76d04cf-4eac-47e3-b05a-1f8f938c71e5"
   data-name="Layer 1"
   viewBox="0 0 667 495.15768"
   version="1.1"
>
  <metadata
     id="metadata35">
  </metadata>
  <defs
     id="defs33" />
  <path
     d="M 790.98251,682.84065 H 220.29076 a 19.1356,19.1356 0 0 1 -19.1356,-19.1356 v 0 q 310.31347,-36.06437 608.963,0 v 0 a 19.1356,19.1356 0 0 1 -19.13565,19.1356 z"
     transform="translate(-172,-202.42116)"
     fill="#2f2e41"
     id="path2" />
  <path
     d="m 810.11811,664.83065 -608.96295,-1.12565 70.57668,-118.7534 0.33768,-0.56282 v -261.719 a 24.18764,24.18764 0 0 1 24.18966,-24.18966 h 415.378 a 24.18764,24.18764 0 0 1 24.18966,24.18966 v 263.52 z"
     transform="translate(-172,-202.42116)"
     fill="#3f3d56"
     id="path4" />
  <path
     d="m 295.70764,275.36452 a 7.88822,7.88822 0 0 0 -7.87938,7.87937 v 238.63243 a 7.88858,7.88858 0 0 0 7.87938,7.87937 h 419.858 a 7.88892,7.88892 0 0 0 7.87937,-7.87937 V 283.24389 a 7.88857,7.88857 0 0 0 -7.87937,-7.87937 z"
     fill="#ffffff"
     id="path6"
     transform="translate(-172,-202.42116)" />
  <path
     d="m 297.467,561.27318 a 3.38619,3.38619 0 0 0 -3.068,1.96545 l -21.74687,47.27624 a 3.37672,3.37672 0 0 0 3.06743,4.7883 H 733.0447 a 3.37649,3.37649 0 0 0 3.01962,-4.88723 L 712.4262,563.1397 a 3.35975,3.35975 0 0 0 -3.01962,-1.86652 z"
     transform="translate(-172,-202.42116)"
     fill="#2f2e41"
     id="path8" />
  <circle
     cx="331.94821"
     cy="63.938358"
     r="5.06531"
     fill="#ffffff"
     id="circle10" />
  <path
     d="m 458.99686,624.30817 a 3.382,3.382 0 0 0 -3.26035,2.49858 l -5.455,20.26124 a 3.37655,3.37655 0 0 0 3.26035,4.25517 h 103.7416 a 3.3761,3.3761 0 0 0 3.19,-4.48161 L 553.4603,626.5803 a 3.37866,3.37866 0 0 0 -3.19111,-2.27213 z"
     transform="translate(-172,-202.42116)"
     fill="#2f2e41"
     id="path12" />
  <polygon
     points="100.081,338.028 563.827,338.028 563.827,342.53 99.732,342.53 100.081,341.968 "
     fill="#2f2e41"
     id="polygon14" />
  <path
     d="m 156.69911,112.5159 a 2.1760248,2.1760248 0 0 0 -2.14224,2.20375 v 49.95179 a 2.1760248,2.1760248 0 0 0 2.14224,2.20375 h 111.03936 a 2.1760283,2.1760283 0 0 0 2.14224,-2.20375 v -49.95179 a 2.1760283,2.1760283 0 0 0 -2.14224,-2.20375 z"
     fill="#e6e6e6"
     id="path16"
     style="stroke-width:0.350612" />
  <path
     d="m 220.48876,166.96445 h 40.4208 a 1.3012301,1.3012301 0 0 0 0.92014,-2.2212 l -25.86986,-25.86987 a 1.3026431,1.3026431 0 0 0 -1.84011,0 l -6.43317,6.43316 a 2.7288138,2.7288138 0 0 1 -3.85962,0 l -20.14956,-20.14956 a 1.3028534,1.3028534 0 0 0 -1.84029,0 l -39.40774,39.40775 a 1.3012301,1.3012301 0 0 0 0.92014,2.22121 h 57.19105 z"
     fill="#3182ce"
     id="path18"
     style="stroke-width:0.350612" />
  <circle
     cx="172.40886"
     cy="124.29822"
     fill="#3182ce"
     id="circle20"
     style="stroke-width:0.350612"
     r="4.9985571" />
  <path
     d="M 490.35625,162.1748 H 297.2789 V 120.57136 H 490.35625 Z M 298.12946,161.29891 H 489.5057 V 121.44719 H 298.12946 Z"
     fill="#3f3d56"
     id="path50"
     style="stroke-width:0.537896" />
  <rect
     x="284.09521"
     y="128.89206"
     width="192.22681"
     height="40.727577"
     fill="#3182ce"
     id="rect52"
     style="stroke-width:0.537896" />
  <path
     d="M 512.16021,318.62563 H 154.07398 V 78.639475 H 512.16021 Z M 154.92454,317.74977 H 511.3096 V 79.515337 H 154.92454 Z"
     fill="#3f3d56"
     id="path60"
     style="stroke-width:0.537896" />
  <rect
     x="154.49927"
     y="91.924103"
     width="357.23563"
     height="0.87586194"
     fill="#3f3d56"
     id="rect62"
     style="stroke-width:0.537896" />
  <rect
     x="266.23172"
     y="92.36203"
     width="0.85056114"
     height="226.16545"
     fill="#3f3d56"
     id="rect70"
     style="stroke-width:0.537896" />
  <path
     d="m 373.19147,208.3765 h -63.3668 v -9.63448 h 63.3668 z m -62.51623,-0.87586 h 61.66567 v -7.88276 h -61.66567 z"
     fill="#3f3d56"
     id="path76"
     style="stroke-width:0.537896" />
  <path
     d="m 373.19147,276.2558 h -63.3668 v -9.63448 h 63.3668 z m -62.51623,-0.87586 h 61.66567 v -7.88276 h -61.66567 z"
     fill="#3f3d56"
     id="path80"
     style="stroke-width:0.537896" />
  <path
     d="m 471.64392,242.31615 h -161.6066 v -9.63448 h 161.6066 z m -160.75607,-0.87586 h 159.90548 v -7.88276 H 310.88785 Z"
     fill="#3f3d56"
     id="path84"
     style="stroke-width:0.537896" />
  <path
     d="m 471.43127,208.3765 h -63.3668 v -9.63448 h 63.3668 z m -62.51624,-0.87586 h 61.66569 v -7.88276 h -61.66569 z"
     fill="#3f3d56"
     id="path86"
     style="stroke-width:0.537896" />
  <path
     d="m 205.03844,294.42245 a 34.984629,36.025284 0 1 1 34.98463,-36.02528 35.024215,36.066047 0 0 1 -34.98463,36.02528 z m 0,-70.95889 a 33.924489,34.933609 0 1 0 33.92449,34.93361 33.963025,34.973291 0 0 0 -33.92449,-34.93361 z"
     fill="#3f3d56"
     id="path88"
     style="stroke-width:0.537896" />
</svg>
